<svg width="32" height="42" viewBox="0 0 32 42" fill="none" xmlns="http://www.w3.org/2000/svg">
<g id="Vector">
<path d="M16 0C11.758 0.00496267 7.69115 1.74496 4.69161 4.83827C1.69207 7.93157 0.00481224 12.1256 0 16.5002C0 22.3877 4.13565 28.5938 8.45455 34.5472C10.7004 37.2221 12.4099 39.6307 15.1727 41.7285C15.4173 41.9052 15.7087 42 16.0073 42C16.3059 42 16.5973 41.9052 16.8418 41.7285C19.5995 39.6298 21.3041 37.2212 23.5455 34.5472C27.8629 28.5938 32 22.3877 32 16.5002C31.9952 12.1256 30.3079 7.93157 27.3084 4.83827C24.3089 1.74496 20.242 0.00496267 16 0Z" fill="#F2542D"/>
<path d="M5.05056 5.18634C7.9576 2.18842 11.8957 0.504961 16 0.5C20.1043 0.504961 24.0424 2.18842 26.9494 5.18634C29.8571 8.18492 31.4953 12.2537 31.5 16.5007C31.4999 19.3308 30.5042 22.2713 28.948 25.2686C27.3952 28.2596 25.3052 31.2686 23.151 34.2395C22.7033 34.7738 22.2797 35.2937 21.8672 35.8C20.1936 37.8538 18.7041 39.6818 16.5445 41.3265C16.3851 41.4402 16.1978 41.5 16.0073 41.5C15.8167 41.5 15.6293 41.4402 15.4699 41.3264C13.3037 39.6804 11.8091 37.85 10.1294 35.7928C9.7179 35.2888 9.29526 34.7712 8.84891 34.2393C6.69402 31.2685 4.6041 28.2595 3.05146 25.2686C1.49545 22.2712 0.500065 19.3306 0.5 16.5004C0.504742 12.2535 2.14294 8.18485 5.05056 5.18634Z" stroke="white" stroke-opacity="0.4"/>
</g>
</svg>
